<?xml version="1.0" encoding="utf-8"?>
<!DOCTYPE svg PUBLIC "-//W3C//DTD SVG 1.1//EN" "http://www.w3.org/Graphics/SVG/1.1/DTD/svg11.dtd">
<svg height="243pt" version="1.1" viewBox="188 220 378 243" width="378pt" xmlns="http://www.w3.org/2000/svg" xmlns:dc="http://purl.org/dc/elements/1.1/" xmlns:xl="http://www.w3.org/1999/xlink"><metadata> Produced by OmniGraffle 6.6.2 <dc:date>2025-04-30 05:50:19 +0000</dc:date></metadata><defs/><g fill="none" fill-opacity="1" stroke="none" stroke-dasharray="none" stroke-opacity="1"><title>portfolio landing page</title><g><title>logo</title><path d="M 564.21097 273.4 C 560.665 256.75026 553.29536 246.62461 533.16477 235.33154 C 513.0342 224.03846 483.97436 219.76496 459.2 221.2 C 434.42565 222.63505 403.5342 227.14274 364 239.8 C 324.46581 252.45726 322.32906 254.16667 297.24146 269.3989 C 272.15386 284.63115 258.01282 303.31197 259.44885 318.83734 C 260.88489 334.36272 274.89244 345.44978 304.82375 352.63704 C 334.75507 359.8243 366.68377 358.8873 369.8559 367.09319 C 373.02803 375.29906 332.60156 393.36874 318.7286 400.00639 C 304.85563 406.64403 296.95166 410.4546 296.95166 410.4546 L 359.8201 441.31557 C 359.8201 441.31557 343.81051 449.79903 331.04804 453.97926 C 318.28557 458.1595 296.26582 462.05624 296.26582 462.05624 C 296.26582 462.05624 332.23062 463.138 364.84973 454.70448 C 397.46883 446.27096 425.19692 430.7709 425.19692 430.7709 L 349.3549 415.73334 C 349.3549 415.73334 420.32136 373.91304 415.22193 355.4 C 410.1225 336.88697 335.44198 327.89037 333.6 312.62193 C 331.75803 297.3535 368.0734 276.23853 385.16698 269.8 C 402.26056 263.36148 439.00001 247.76698 460.4 248.8 C 481.8 249.83303 488.18526 261.34216 494.81097 275.65482 C 501.4367 289.9675 497.16446 330.43478 489.6 346 C 482.03555 361.56523 469.72477 381.19266 449.6 397 C 429.47524 412.80735 408.54363 423.36306 408.54363 423.36306 L 430.11571 428 C 430.11571 428 449.39588 417.19972 460.97357 409.62645 C 472.55126 402.05317 484.6482 394.172 503.6 377.2 C 522.55183 360.22801 541.61423 340.3241 550.8 324 C 559.9858 307.6759 567.75695 290.04975 564.21097 273.4 Z M 536.7974 264.6026 C 541.60088 269.40605 541.60088 277.19396 536.7974 281.9974 C 531.99397 286.80088 524.20605 286.80088 519.4026 281.9974 C 514.59913 277.19396 514.59913 269.40605 519.4026 264.6026 C 524.20605 259.79913 531.99397 259.79913 536.7974 264.6026" fill="#9a4ff5"/><path d="M 310.177 455.62302 C 310.177 455.62302 292.60709 461.12214 274.6 461.53452 C 256.59292 461.9469 238.38939 458.9894 221.93806 450.8 C 205.48673 442.61062 193.18231 429.76461 189.6 413.4 C 186.0177 397.0354 193.48673 368.39647 214.35399 339.0655 C 235.22124 309.73451 266.93098 288.88474 266.93098 288.88474 C 266.93098 288.88474 253.8938 303.80531 255.6 318.4 C 257.3062 332.9947 268.577 341.82301 268.577 341.82301 C 268.577 341.82301 246.70067 349.5463 233.6 374.2 C 220.49934 398.8537 215.37719 424.5396 234.4 441.8 C 253.42282 459.0604 310.177 455.62302 310.177 455.62302 Z" fill="#9a4ff5"/></g></g></svg>